<?xml version="1.0" standalone="no"?>
<!DOCTYPE svg PUBLIC "-//W3C//DTD SVG 20010904//EN"
 "http://www.w3.org/TR/2001/REC-SVG-20010904/DTD/svg10.dtd">
<svg version="1.0" xmlns="http://www.w3.org/2000/svg"
 width="619.000000pt" height="349.000000pt" viewBox="0 0 619.000000 349.000000"
 preserveAspectRatio="xMidYMid meet">
<metadata>
Created by potrace 1.15, written by Peter Selinger 2001-2017
</metadata>
<g transform="translate(0.000000,349.000000) scale(0.100000,-0.100000)"
fill="#000000" stroke="none">
<path d="M0 1905 l0 -1585 25 6 c15 4 25 2 25 -5 0 -6 -11 -11 -25 -11 l-25 0
0 -155 0 -155 3095 0 3095 0 0 1020 0 1020 -24 0 c-13 0 -26 4 -28 9 -1 5 -34
26 -73 46 -38 21 -79 47 -90 59 -11 12 -37 30 -58 41 -21 11 -47 28 -58 38
-10 10 -19 15 -19 11 0 -4 -8 0 -17 8 -10 8 -32 20 -50 27 -74 30 -67 74 9 52
67 -19 152 -54 160 -65 4 -6 10 -7 14 -3 4 4 18 0 32 -9 13 -8 33 -17 45 -18
12 -2 29 -6 37 -9 8 -3 39 -13 68 -21 l52 -15 0 650 0 649 -1120 0 c-740 0
-1120 -3 -1120 -10 0 -5 -5 -10 -11 -10 -5 0 -7 5 -4 10 4 7 -653 10 -1964 10
l-1971 0 0 -1585z m710 995 c0 -5 3 -9 8 -8 16 5 94 -44 102 -65 5 -12 9 -16
9 -8 1 11 5 10 17 -5 8 -10 13 -13 9 -6 -4 7 0 12 9 12 9 0 13 -6 10 -14 -3
-8 -1 -17 5 -21 6 -3 11 1 11 9 0 9 5 16 11 16 7 0 8 -11 4 -32 -6 -25 -4 -30
8 -25 9 3 17 -1 20 -14 6 -22 49 -41 74 -32 12 5 15 2 10 -10 -4 -11 1 -20 14
-27 11 -6 17 -15 14 -20 -3 -4 3 -6 12 -4 27 6 60 -23 45 -38 -16 -16 -15 -31
2 -25 8 3 20 -1 27 -9 10 -13 10 -17 -2 -24 -8 -6 -15 -6 -17 0 -5 13 -32 13
-32 1 0 -5 4 -11 10 -13 6 -2 6 -8 0 -18 -8 -13 -10 -12 -10 3 0 21 -9 22 -25
0 -7 -9 -17 -13 -24 -9 -8 6 -5 14 13 29 21 19 23 24 12 40 -7 9 -17 17 -21
17 -4 0 -23 16 -42 35 -19 20 -39 33 -45 29 -6 -4 -6 -10 1 -17 18 -18 12 -28
-10 -17 -16 9 -19 18 -15 36 7 28 -13 33 -38 9 -17 -17 -42 -11 -51 13 -4 11
-8 13 -13 5 -4 -6 -18 -9 -32 -6 -24 4 -40 23 -56 66 -3 9 -13 17 -20 17 -8 0
-14 7 -14 15 0 8 3 15 6 15 3 0 12 -7 20 -15 9 -8 23 -14 32 -14 15 1 15 2 0
6 -22 5 -24 23 -3 23 8 0 15 5 15 10 0 7 -7 7 -20 0 -19 -10 -20 -9 -14 14 4
18 2 26 -7 26 -20 0 -48 30 -42 46 6 16 23 19 23 4z m3627 -99 c48 -16 104
-32 125 -35 20 -3 60 -14 90 -25 29 -10 104 -35 167 -55 63 -20 120 -40 125
-45 6 -5 44 -19 83 -31 64 -20 75 -27 90 -59 12 -23 26 -37 41 -39 44 -6 20
-42 -29 -42 -10 0 -19 -7 -19 -15 0 -11 -8 -13 -32 -8 -18 3 -34 10 -36 15 -2
4 -15 8 -28 8 -13 0 -24 5 -24 11 0 5 -4 7 -10 4 -5 -3 -10 -1 -10 4 0 6 -8
11 -17 11 -10 0 -29 9 -43 20 -14 11 -28 20 -33 20 -4 0 -25 11 -47 25 -43 27
-265 126 -290 129 -8 1 -37 13 -65 27 -27 15 -74 34 -102 43 -57 19 -68 29
-59 51 8 21 23 19 123 -14z m-1764 -128 c4 -3 18 -7 31 -9 32 -3 136 -53 136
-65 0 -5 7 -9 15 -9 8 0 15 -4 15 -10 0 -5 7 -7 15 -4 8 4 15 2 15 -4 0 -11
61 -60 81 -64 8 -2 42 -22 76 -45 34 -24 64 -43 68 -43 4 0 32 -19 63 -42 32
-24 65 -47 73 -53 9 -5 36 -23 60 -39 195 -129 309 -187 356 -181 16 1 27 8
25 14 -1 6 12 25 29 42 16 16 35 43 41 60 8 23 13 27 19 17 8 -10 11 -10 20 5
5 9 16 17 24 17 8 0 19 9 25 20 6 11 18 20 28 20 9 0 37 10 62 21 25 12 58 21
74 21 16 -1 43 6 59 14 21 11 32 13 40 5 6 -6 32 -11 57 -11 26 0 65 -9 88
-20 24 -12 48 -18 54 -14 8 5 9 1 5 -10 -5 -13 -3 -17 7 -13 8 3 20 -1 26 -9
7 -8 19 -14 26 -14 8 0 14 -7 14 -15 0 -9 11 -20 25 -25 14 -5 28 -18 32 -27
4 -10 9 -20 12 -23 23 -20 71 -103 71 -122 0 -34 18 -90 31 -99 8 -5 8 -12 0
-27 -6 -11 -11 -40 -11 -64 0 -46 -32 -187 -52 -225 -6 -13 -17 -23 -24 -23
-6 0 -34 -24 -60 -54 -27 -29 -64 -61 -81 -70 -18 -9 -33 -21 -33 -26 0 -5 -7
-7 -15 -4 -8 4 -21 2 -28 -4 -15 -12 -146 -27 -202 -23 -61 4 -145 32 -192 63
-23 15 -45 28 -50 28 -29 0 -143 155 -143 193 0 10 -4 17 -9 17 -5 0 -12 14
-16 30 -4 17 -11 30 -16 30 -6 0 -8 4 -4 9 3 6 -4 15 -15 21 -11 6 -20 15 -20
21 0 14 -26 39 -39 39 -6 0 -11 5 -11 10 0 6 -17 18 -37 27 -21 10 -39 18 -41
19 -11 5 14 34 29 34 11 0 22 6 25 14 3 8 13 12 25 9 24 -7 25 8 2 27 -10 9
-126 69 -258 135 -132 65 -244 123 -250 128 -5 4 -63 42 -128 84 -72 46 -116
81 -113 88 2 7 -15 30 -40 51 -24 21 -44 43 -44 49 0 6 -10 15 -22 20 -13 6
-25 19 -27 30 -2 11 -10 25 -19 31 -8 6 -12 16 -8 22 8 13 19 15 29 5z m-1251
-213 c8 0 26 -9 39 -21 61 -52 87 -79 92 -91 2 -7 8 -9 13 -5 5 4 2 13 -6 18
-11 8 -8 8 10 3 29 -8 42 -23 35 -41 -2 -7 -1 -12 3 -11 12 4 72 -24 72 -33 0
-5 11 -9 25 -9 14 0 36 -10 48 -23 26 -27 72 -57 87 -57 6 0 16 -5 23 -10 43
-37 112 -81 177 -115 41 -21 93 -49 115 -62 86 -51 185 -80 185 -54 0 7 5 9
12 5 7 -4 8 -3 4 5 -5 7 -16 9 -28 5 -13 -4 -18 -2 -14 4 3 6 2 13 -4 17 -5 3
-10 0 -10 -7 0 -8 -5 -6 -11 5 -6 9 -15 14 -21 11 -7 -4 -8 -2 -4 5 4 6 0 14
-11 18 -10 3 -32 18 -49 32 -66 55 -75 61 -87 61 -6 0 -19 5 -27 11 -12 8 -10
9 7 4 31 -9 21 18 -13 34 -14 6 -22 16 -19 21 10 17 34 11 46 -11 6 -13 17
-19 28 -16 10 2 26 -2 37 -11 17 -13 17 -14 1 -8 -30 10 -10 -10 37 -38 25
-14 53 -26 63 -26 10 0 29 -9 43 -20 21 -17 22 -19 5 -14 -11 3 0 -5 25 -18
25 -13 62 -34 84 -47 21 -12 45 -20 52 -17 7 3 17 0 21 -7 9 -14 43 -19 43 -6
0 5 -3 9 -7 9 -5 0 -28 18 -53 40 -31 28 -40 40 -27 40 9 0 17 -4 17 -10 0 -5
6 -10 13 -10 7 0 30 -9 52 -20 22 -11 43 -20 47 -20 4 0 18 -11 32 -25 14 -14
32 -25 41 -25 9 0 27 -7 40 -16 13 -9 28 -13 33 -11 4 3 14 1 22 -5 12 -8 12
-9 -2 -4 -27 8 -21 -2 10 -17 15 -8 33 -12 39 -10 7 3 19 -1 27 -9 7 -7 46
-38 86 -68 40 -30 87 -67 105 -83 18 -15 35 -23 37 -17 6 18 140 -85 150 -115
1 -5 6 -9 11 -7 4 1 7 -5 7 -13 0 -8 4 -15 9 -15 18 0 63 -49 56 -60 -8 -13
29 -57 60 -71 11 -6 3 6 -18 25 -22 19 -36 39 -33 44 3 6 34 -16 68 -49 34
-32 65 -59 68 -59 4 0 22 -21 40 -47 19 -27 48 -65 66 -85 19 -21 45 -61 60
-90 15 -29 40 -70 57 -91 31 -37 31 -39 29 -145 -6 -383 -7 -384 -33 -429 -13
-24 -27 -43 -31 -43 -8 0 1 60 14 83 5 10 6 26 3 37 -3 10 -1 21 5 25 19 12
11 26 -10 15 -18 -10 -20 -8 -20 18 0 20 -7 33 -25 42 -14 7 -25 22 -25 33 0
10 -5 17 -12 15 -7 -3 -20 5 -29 16 -15 18 -20 19 -43 8 -35 -16 -79 -15 -94
1 -7 6 -34 13 -59 13 -48 2 -74 22 -47 37 8 5 20 6 27 3 7 -2 4 -5 -5 -5 -10
-1 -18 -5 -18 -11 0 -9 26 -4 45 10 6 4 18 6 28 4 12 -1 17 2 14 10 -4 9 5 13
31 12 31 -1 36 2 34 18 -2 11 1 16 10 13 7 -2 12 -10 10 -17 -2 -7 3 -10 12
-7 8 3 16 1 18 -5 2 -6 14 -13 26 -15 17 -2 22 2 22 18 0 29 -18 59 -36 59 -8
0 -12 5 -9 10 3 6 1 10 -5 10 -11 0 -28 12 -60 44 -23 23 -34 16 -35 -21 0
-15 -5 -28 -12 -30 -16 -6 -9 57 8 67 8 5 9 26 4 66 -3 32 -7 59 -8 60 -44 29
-85 63 -81 67 3 2 -11 15 -30 27 -20 12 -36 26 -36 31 0 11 -37 49 -49 49 -4
0 -2 -20 7 -45 8 -25 19 -45 24 -45 6 0 8 -7 4 -15 -3 -8 -2 -14 2 -13 10 2
62 -20 62 -26 0 -3 -7 -3 -15 0 -8 4 -15 1 -15 -6 0 -8 -9 -11 -25 -8 -14 3
-22 1 -19 -4 4 -5 -3 -16 -15 -24 -12 -9 -21 -26 -21 -40 0 -13 -4 -24 -9 -24
-15 0 -26 43 -12 48 6 2 11 11 11 20 0 13 -2 14 -9 3 -7 -10 -12 -10 -30 5
-11 10 -21 24 -21 31 0 16 -41 54 -52 47 -4 -3 -8 4 -8 14 0 19 -30 54 -30 36
0 -5 -5 -2 -10 6 -7 10 -12 11 -17 4 -22 -31 -94 -11 -170 47 -27 20 -18 34
11 16 35 -23 77 -26 127 -10 33 11 46 20 42 29 -7 19 11 18 27 -1 16 -19 34
-19 27 0 -5 11 -1 12 18 5 14 -5 25 -7 25 -4 0 2 9 0 21 -6 11 -7 32 -14 46
-16 20 -4 24 -2 19 11 -3 9 -6 21 -6 26 0 6 -4 8 -9 4 -5 -3 -27 3 -48 14 -46
23 -103 34 -103 21 0 -6 -4 -10 -10 -10 -5 0 -10 6 -10 13 0 26 -64 76 -103
80 -20 2 -46 12 -56 21 -9 9 -20 13 -24 10 -3 -3 -11 3 -19 15 l-12 20 -23
-21 c-13 -12 -23 -16 -23 -10 0 7 -6 12 -14 12 -19 0 -29 29 -15 46 28 34 -39
82 -88 63 -20 -7 -28 -6 -35 3 -13 22 -9 34 17 48 28 15 17 30 -22 30 -13 0
-23 5 -23 10 0 6 -4 10 -10 10 -5 0 -10 -9 -10 -20 0 -22 -1 -23 -24 -14 -8 3
-13 11 -10 18 3 8 -6 13 -28 13 -18 0 -45 4 -60 8 -20 5 -31 2 -49 -16 l-22
-22 7 41 c4 26 2 42 -4 42 -5 0 -9 -5 -7 -12 1 -6 -6 -14 -15 -16 -12 -2 -18
3 -18 13 0 12 -7 16 -27 13 -22 -2 -29 2 -31 17 -2 11 -13 25 -25 30 -12 6
-22 17 -22 25 0 8 -13 21 -28 27 -55 24 -157 98 -153 110 3 7 -1 10 -10 6 -16
-6 -55 36 -49 54 2 7 -2 10 -11 6 -9 -3 -14 1 -15 13 0 11 -3 14 -6 7 -5 -14
-33 -18 -33 -5 0 5 -19 18 -43 30 -24 12 -57 33 -73 48 -16 14 -38 30 -49 35
-36 18 -61 34 -108 69 -45 34 -57 50 -37 50 6 0 10 5 10 11 0 7 -9 9 -21 6
-13 -3 -19 -1 -16 6 2 7 -17 27 -42 47 -25 19 -55 43 -66 53 -11 10 -46 34
-77 53 -57 35 -72 54 -43 54 8 0 15 5 15 11 0 6 -6 9 -13 6 -8 -3 -20 -1 -28
4 -11 7 -11 11 5 22 16 12 22 9 55 -25 21 -21 45 -38 53 -38z m412 -765 c4
-11 -3 -19 -22 -26 -56 -20 -59 -22 -41 -26 24 -6 19 -54 -8 -76 -13 -10 -23
-29 -23 -43 0 -14 -5 -23 -12 -21 -7 1 -12 -3 -11 -10 1 -6 -5 -14 -13 -17
-12 -5 -15 -2 -10 10 6 15 4 15 -10 3 -15 -12 -16 -12 -11 1 4 8 10 23 13 33
4 9 13 17 20 17 8 0 14 2 14 4 0 2 3 11 6 20 5 12 0 16 -19 16 -33 0 -90 -70
-90 -111 0 -16 -4 -29 -9 -29 -4 0 -8 -6 -8 -14 0 -7 -7 -20 -16 -27 -15 -12
-16 -11 -11 6 3 11 8 37 12 58 3 20 10 37 14 37 5 0 23 25 42 54 18 30 36 53
39 51 4 -2 12 6 19 18 7 13 33 34 59 48 26 13 49 27 50 32 6 12 20 8 26 -8z"/>
</g>
</svg>
